<?xml version="1.0" standalone="no"?>
<!DOCTYPE svg PUBLIC "-//W3C//DTD SVG 20010904//EN"
 "http://www.w3.org/TR/2001/REC-SVG-20010904/DTD/svg10.dtd">
<svg version="1.0" xmlns="http://www.w3.org/2000/svg"
 width="512.000000pt" height="512.000000pt" viewBox="0 0 512.000000 512.000000"
 preserveAspectRatio="xMidYMid meet">
<metadata>
Created by potrace 1.11, written by Peter Selinger 2001-2013
</metadata>
<g transform="translate(0.000000,512.000000) scale(0.100000,-0.100000)"
fill="#000000" stroke="none">
<path d="M3351 4357 c-14 -6 -40 -37 -58 -67 -50 -83 -98 -136 -177 -194 -150
-110 -209 -132 -776 -286 -296 -81 -431 -118 -695 -191 -38 -10 -142 -39 -230
-63 -88 -25 -284 -78 -435 -120 -929 -254 -934 -255 -959 -283 -18 -21 -22
-34 -17 -62 3 -19 13 -42 23 -52 14 -13 388 -236 568 -339 17 -9 118 -69 226
-133 108 -63 211 -124 230 -135 19 -10 124 -72 234 -137 135 -80 210 -118 230
-118 17 0 77 14 135 32 175 54 173 53 1820 547 1223 366 1601 482 1620 500 30
28 35 64 15 104 -11 22 -39 38 -132 78 -883 374 -840 354 -974 448 -150 105
-348 267 -469 384 -104 101 -129 113 -179 87z m100 -253 c34 -37 249 -218 344
-290 186 -141 271 -186 682 -360 155 -65 279 -122 275 -125 -5 -5 -1385 -422
-1572 -475 -25 -7 -211 -63 -415 -124 -203 -62 -390 -118 -415 -125 -25 -8
-92 -28 -150 -45 -58 -18 -125 -38 -150 -45 -50 -14 -311 -93 -437 -131 -68
-21 -86 -23 -105 -13 -13 7 -122 71 -243 142 -121 71 -235 138 -254 149 -57
33 -511 298 -605 354 -53 31 -84 55 -75 58 17 6 667 185 689 191 8 1 155 41
325 88 329 91 397 109 405 109 3 0 16 5 29 10 14 5 81 24 150 42 70 19 234 64
366 100 132 37 299 82 370 102 364 100 499 167 655 325 47 48 90 87 96 88 6 0
21 -11 35 -25z"/>
<path d="M4760 2974 c-135 -41 -297 -90 -360 -108 -63 -19 -212 -64 -330 -99
-118 -36 -231 -69 -250 -75 -53 -15 -1528 -458 -1655 -497 -100 -31 -211 -64
-335 -100 -25 -7 -98 -29 -162 -49 -65 -20 -124 -36 -133 -36 -16 0 -58 22
-240 130 -71 42 -184 109 -250 147 -66 39 -286 169 -490 289 -445 261 -431
254 -472 254 -46 0 -85 -43 -79 -88 2 -18 12 -42 21 -52 15 -16 187 -122 355
-218 19 -11 278 -163 575 -337 297 -175 547 -318 555 -317 14 0 194 53 520
152 208 63 807 243 840 252 19 5 109 32 200 60 91 28 185 56 210 63 25 7 137
41 250 75 113 34 210 63 215 64 6 1 48 14 95 28 105 32 597 180 940 283 140
42 268 81 283 87 30 12 57 54 57 88 0 32 -53 80 -87 79 -15 0 -138 -34 -273
-75z"/>
<path d="M4915 2666 c-55 -18 -104 -33 -110 -34 -5 -2 -28 -8 -50 -14 -22 -6
-44 -13 -50 -14 -5 -2 -138 -42 -295 -89 -157 -47 -321 -97 -365 -110 -44 -13
-628 -188 -1299 -389 l-1219 -366 -266 156 c-930 547 -1137 666 -1167 671 -28
5 -38 0 -64 -26 -23 -23 -30 -37 -27 -58 9 -62 -17 -44 602 -408 110 -64 216
-126 235 -137 36 -21 127 -74 465 -273 l199 -117 1276 383 c701 210 1325 397
1385 415 627 186 910 274 927 292 22 22 31 77 17 104 -11 20 -45 40 -74 43
-11 2 -65 -12 -120 -29z"/>
<path d="M4905 2310 c-101 -31 -727 -219 -1415 -425 -250 -74 -482 -144 -515
-155 -139 -44 -1435 -430 -1445 -430 -6 0 -99 52 -208 117 -108 64 -210 124
-227 133 -16 9 -68 40 -115 67 -47 28 -101 60 -120 71 -19 11 -197 115 -394
231 -380 223 -375 221 -433 184 -24 -16 -38 -62 -28 -92 5 -18 75 -81 88 -81
4 0 30 -14 59 -31 90 -54 842 -495 1053 -619 110 -64 219 -129 242 -143 24
-15 50 -27 59 -27 13 0 574 165 799 235 28 8 172 51 320 96 149 44 313 93 365
109 189 58 1606 482 1635 490 97 26 441 134 456 143 45 28 48 103 6 138 -30
25 -75 22 -182 -11z"/>
<path d="M4910 1958 c-52 -16 -129 -40 -170 -52 -41 -13 -114 -35 -162 -50
-48 -15 -95 -29 -105 -31 -10 -2 -281 -83 -603 -180 -322 -97 -688 -207 -815
-245 -126 -37 -412 -123 -635 -190 -223 -67 -448 -134 -500 -150 -52 -15 -162
-48 -243 -73 l-148 -44 -302 176 c-166 97 -420 246 -565 331 -144 85 -279 164
-300 176 -20 11 -84 49 -142 82 -58 34 -114 62 -125 62 -39 0 -62 -12 -79 -41
-26 -44 -13 -92 32 -122 34 -23 377 -225 481 -285 25 -14 68 -38 95 -55 28
-16 220 -129 426 -249 206 -121 392 -231 413 -244 l38 -25 287 86 c158 47 330
99 382 115 119 36 1659 498 1835 550 700 207 1073 323 1088 338 10 10 20 34
23 53 5 28 1 41 -18 63 -32 38 -74 39 -188 4z"/>
</g>
</svg>
